<svg width="56" height="56" viewBox="0 0 56 56" fill="none" xmlns="http://www.w3.org/2000/svg">
<path opacity="0.2" d="M10.75 23.74L13.75 25.11H18.75L19.75 22.37L22.1 17.64L23 16.28L22.1 13.85L23.87 11.11H26.79L28.27 12.7L28.46 15.1L27.3 17.47L29.82 19.22C29.82 19.22 31.82 22.32 31.82 22.39C31.82 22.46 31.68 25.29 31.68 25.29L38.68 24.46L39 8.32001L38.34 6.11001L35.91 5.11001L14.25 4.89001L12.08 5.89001L11 9.22002L10.75 23.74Z" fill="#3573E0"/>
<path opacity="0.2" d="M43.25 11.11H39.25L39.31 45.11H17.25V49.11C17.25 49.6404 17.4607 50.1491 17.8358 50.5242C18.2109 50.8993 18.7196 51.11 19.25 51.11H43.25C43.7804 51.11 44.2891 50.8993 44.6642 50.5242C45.0393 50.1491 45.25 49.6404 45.25 49.11V13.11C45.25 12.5796 45.0393 12.0708 44.6642 11.6958C44.2891 11.3207 43.7804 11.11 43.25 11.11Z" fill="#3573E0"/>
<path opacity="0.2" d="M19.25 29.11H15.25V33.11H19.25V29.11Z" fill="#3573E0"/>
<path d="M43 10H40V7C40 6.20435 39.6839 5.44129 39.1213 4.87868C38.5587 4.31607 37.7956 4 37 4H13C12.2044 4 11.4413 4.31607 10.8787 4.87868C10.3161 5.44129 10 6.20435 10 7V43C10 43.7957 10.3161 44.5587 10.8787 45.1213C11.4413 45.6839 12.2044 46 13 46H16V49C16 49.7957 16.3161 50.5587 16.8787 51.1213C17.4413 51.6839 18.2044 52 19 52H43C43.7957 52 44.5587 51.6839 45.1213 51.1213C45.6839 50.5587 46 49.7957 46 49V13C46 12.2044 45.6839 11.4413 45.1213 10.8787C44.5587 10.3161 43.7957 10 43 10ZM43 12C43.2652 12 43.5196 12.1054 43.7071 12.2929C43.8946 12.4804 44 12.7348 44 13V30H40V12H43ZM13 6H37C37.2652 6 37.5196 6.10536 37.7071 6.29289C37.8946 6.48043 38 6.73478 38 7V24H31.92C31.9665 23.6686 31.9932 23.3346 32 23C32.001 21.6744 31.6257 20.3758 30.9175 19.2552C30.2094 18.1346 29.1977 17.2381 28 16.67C28.6558 15.9366 29.0126 14.9838 29 14C29 12.9391 28.5786 11.9217 27.8284 11.1716C27.0783 10.4214 26.0609 10 25 10C23.9391 10 22.9217 10.4214 22.1716 11.1716C21.4214 11.9217 21 12.9391 21 14C21.001 14.9905 21.376 15.9441 22.05 16.67C20.843 17.2309 19.8209 18.1243 19.1036 19.2455C18.3862 20.3666 18.0034 21.669 18 23C18.0064 23.3346 18.0331 23.6686 18.08 24H12V7C12 6.73478 12.1054 6.48043 12.2929 6.29289C12.4804 6.10536 12.7348 6 13 6ZM20.11 24C20.0383 23.6715 20.0015 23.3363 20 23C20 21.6739 20.5268 20.4021 21.4645 19.4645C22.4021 18.5268 23.6739 18 25 18C26.3261 18 27.5979 18.5268 28.5355 19.4645C29.4732 20.4021 30 21.6739 30 23C29.9985 23.3363 29.9617 23.6715 29.89 24H20.11ZM23 14C23 13.6044 23.1173 13.2178 23.3371 12.8889C23.5568 12.56 23.8692 12.3036 24.2346 12.1522C24.6001 12.0009 25.0022 11.9613 25.3902 12.0384C25.7781 12.1156 26.1345 12.3061 26.4142 12.5858C26.6939 12.8655 26.8844 13.2219 26.9616 13.6098C27.0387 13.9978 26.9991 14.3999 26.8478 14.7654C26.6964 15.1308 26.44 15.4432 26.1111 15.6629C25.7822 15.8827 25.3956 16 25 16C24.4696 16 23.9609 15.7893 23.5858 15.4142C23.2107 15.0391 23 14.5304 23 14ZM12 43V26H38V43C38 43.2652 37.8946 43.5196 37.7071 43.7071C37.5196 43.8946 37.2652 44 37 44H13C12.7348 44 12.4804 43.8946 12.2929 43.7071C12.1054 43.5196 12 43.2652 12 43ZM43 50H19C18.7348 50 18.4804 49.8946 18.2929 49.7071C18.1054 49.5196 18 49.2652 18 49V46H37C37.7956 46 38.5587 45.6839 39.1213 45.1213C39.6839 44.5587 40 43.7957 40 43V32H44V49C44 49.2652 43.8946 49.5196 43.7071 49.7071C43.5196 49.8946 43.2652 50 43 50Z" fill="#3573E0"/>
<path d="M15 34H19C19.2652 34 19.5196 33.8946 19.7071 33.7071C19.8946 33.5196 20 33.2652 20 33V29C20 28.7348 19.8946 28.4804 19.7071 28.2929C19.5196 28.1054 19.2652 28 19 28H15C14.7348 28 14.4804 28.1054 14.2929 28.2929C14.1054 28.4804 14 28.7348 14 29V33C14 33.2652 14.1054 33.5196 14.2929 33.7071C14.4804 33.8946 14.7348 34 15 34ZM16 30H18V32H16V30Z" fill="#3573E0"/>
<path d="M23 30H35C35.2652 30 35.5196 29.8946 35.7071 29.7071C35.8946 29.5196 36 29.2652 36 29C36 28.7348 35.8946 28.4804 35.7071 28.2929C35.5196 28.1054 35.2652 28 35 28H23C22.7348 28 22.4804 28.1054 22.2929 28.2929C22.1054 28.4804 22 28.7348 22 29C22 29.2652 22.1054 29.5196 22.2929 29.7071C22.4804 29.8946 22.7348 30 23 30Z" fill="#3573E0"/>
<path d="M23 34H35C35.2652 34 35.5196 33.8946 35.7071 33.7071C35.8946 33.5196 36 33.2652 36 33C36 32.7348 35.8946 32.4804 35.7071 32.2929C35.5196 32.1054 35.2652 32 35 32H23C22.7348 32 22.4804 32.1054 22.2929 32.2929C22.1054 32.4804 22 32.7348 22 33C22 33.2652 22.1054 33.5196 22.2929 33.7071C22.4804 33.8946 22.7348 34 23 34Z" fill="#3573E0"/>
<path d="M36 37C36 36.7348 35.8946 36.4804 35.7071 36.2929C35.5196 36.1054 35.2652 36 35 36H15C14.7348 36 14.4804 36.1054 14.2929 36.2929C14.1054 36.4804 14 36.7348 14 37C14 37.2652 14.1054 37.5196 14.2929 37.7071C14.4804 37.8946 14.7348 38 15 38H35C35.2652 38 35.5196 37.8946 35.7071 37.7071C35.8946 37.5196 36 37.2652 36 37Z" fill="#3573E0"/>
</svg>
