<svg width="170" height="19" viewBox="0 0 170 19" fill="none" xmlns="http://www.w3.org/2000/svg">
<path d="M11.22 15H4.72L3.48 18H0.16L6.4 4H9.6L15.86 18H12.46L11.22 15ZM10.2 12.54L7.98 7.18L5.76 12.54H10.2ZM30.3138 4V18H27.1137V6.64H22.3138L22.2138 9.56C22.1471 11.5467 21.9871 13.16 21.7338 14.4C21.4804 15.6267 21.0538 16.5733 20.4538 17.24C19.8671 17.8933 19.0404 18.22 17.9738 18.22C17.5338 18.22 17.0004 18.1467 16.3738 18L16.5738 15.26C16.7471 15.3133 16.9404 15.34 17.1538 15.34C17.9271 15.34 18.4671 14.8867 18.7738 13.98C19.0804 13.06 19.2738 11.6267 19.3538 9.68L19.5538 4H30.3138ZM40.5903 8.6C42.297 8.6 43.6036 8.98 44.5103 9.74C45.4303 10.5 45.8903 11.6267 45.8903 13.12C45.8903 14.7067 45.3836 15.92 44.3703 16.76C43.3703 17.5867 41.957 18 40.1303 18H33.8103V4H37.0303V8.6H40.5903ZM39.9503 15.6C40.7903 15.6 41.4436 15.3933 41.9103 14.98C42.3903 14.5667 42.6303 13.9667 42.6303 13.18C42.6303 11.7267 41.737 11 39.9503 11H37.0303V15.6H39.9503ZM58.6036 4V18H55.4036V14.28H52.4436L49.9636 18H46.5436L49.4636 13.78C48.5169 13.3933 47.7903 12.8133 47.2836 12.04C46.7769 11.2533 46.5236 10.3133 46.5236 9.22C46.5236 8.14 46.7703 7.21333 47.2636 6.44C47.7569 5.65333 48.4569 5.05333 49.3636 4.64C50.2703 4.21333 51.3369 4 52.5636 4H58.6036ZM52.6436 6.64C51.7236 6.64 51.0169 6.85333 50.5236 7.28C50.0436 7.70667 49.8036 8.34 49.8036 9.18C49.8036 9.99333 50.0369 10.62 50.5036 11.06C50.9703 11.5 51.6569 11.72 52.5636 11.72H55.4036V6.64H52.6436ZM74.9511 4V18H71.7111V12.26H65.3511V18H62.1111V4H65.3511V9.52H71.7111V4H74.9511ZM85.0788 18.24C83.6521 18.24 82.3588 17.9333 81.1988 17.32C80.0521 16.6933 79.1454 15.8333 78.4788 14.74C77.8254 13.6333 77.4988 12.3867 77.4988 11C77.4988 9.61333 77.8254 8.37333 78.4788 7.28C79.1454 6.17333 80.0521 5.31333 81.1988 4.7C82.3588 4.07333 83.6588 3.76 85.0988 3.76C86.3121 3.76 87.4054 3.97333 88.3788 4.4C89.3654 4.82667 90.1921 5.44 90.8588 6.24L88.7788 8.16C87.8321 7.06667 86.6588 6.52 85.2588 6.52C84.3921 6.52 83.6188 6.71333 82.9388 7.1C82.2588 7.47333 81.7254 8 81.3388 8.68C80.9654 9.36 80.7788 10.1333 80.7788 11C80.7788 11.8667 80.9654 12.64 81.3388 13.32C81.7254 14 82.2588 14.5333 82.9388 14.92C83.6188 15.2933 84.3921 15.48 85.2588 15.48C86.6588 15.48 87.8321 14.9267 88.7788 13.82L90.8588 15.74C90.1921 16.5533 89.3654 17.1733 88.3788 17.6C87.3921 18.0267 86.2921 18.24 85.0788 18.24ZM105.255 18.24C103.828 18.24 102.535 17.9333 101.375 17.32C100.228 16.6933 99.3212 15.8333 98.6545 14.74C98.0012 13.6333 97.6745 12.3867 97.6745 11C97.6745 9.61333 98.0012 8.37333 98.6545 7.28C99.3212 6.17333 100.228 5.31333 101.375 4.7C102.535 4.07333 103.835 3.76 105.275 3.76C106.488 3.76 107.581 3.97333 108.555 4.4C109.541 4.82667 110.368 5.44 111.035 6.24L108.955 8.16C108.008 7.06667 106.835 6.52 105.435 6.52C104.568 6.52 103.795 6.71333 103.115 7.1C102.435 7.47333 101.901 8 101.515 8.68C101.141 9.36 100.955 10.1333 100.955 11C100.955 11.8667 101.141 12.64 101.515 13.32C101.901 14 102.435 14.5333 103.115 14.92C103.795 15.2933 104.568 15.48 105.435 15.48C106.835 15.48 108.008 14.9267 108.955 13.82L111.035 15.74C110.368 16.5533 109.541 17.1733 108.555 17.6C107.568 18.0267 106.468 18.24 105.255 18.24ZM123.71 6.64H119.23V18H116.03V6.64H111.57V4H123.71V6.64ZM131.804 4C133.044 4 134.117 4.20667 135.024 4.62C135.944 5.03333 136.651 5.62 137.144 6.38C137.637 7.14 137.884 8.04 137.884 9.08C137.884 10.1067 137.637 11.0067 137.144 11.78C136.651 12.54 135.944 13.1267 135.024 13.54C134.117 13.94 133.044 14.14 131.804 14.14H128.984V18H125.744V4H131.804ZM131.624 11.5C132.597 11.5 133.337 11.2933 133.844 10.88C134.351 10.4533 134.604 9.85333 134.604 9.08C134.604 8.29333 134.351 7.69333 133.844 7.28C133.337 6.85333 132.597 6.64 131.624 6.64H128.984V11.5H131.624ZM146.897 18.24C145.443 18.24 144.13 17.9267 142.957 17.3C141.797 16.6733 140.883 15.8133 140.217 14.72C139.563 13.6133 139.237 12.3733 139.237 11C139.237 9.62667 139.563 8.39333 140.217 7.3C140.883 6.19333 141.797 5.32667 142.957 4.7C144.13 4.07333 145.443 3.76 146.897 3.76C148.35 3.76 149.657 4.07333 150.817 4.7C151.977 5.32667 152.89 6.19333 153.557 7.3C154.223 8.39333 154.557 9.62667 154.557 11C154.557 12.3733 154.223 13.6133 153.557 14.72C152.89 15.8133 151.977 16.6733 150.817 17.3C149.657 17.9267 148.35 18.24 146.897 18.24ZM146.897 15.48C147.723 15.48 148.47 15.2933 149.137 14.92C149.803 14.5333 150.323 14 150.697 13.32C151.083 12.64 151.277 11.8667 151.277 11C151.277 10.1333 151.083 9.36 150.697 8.68C150.323 8 149.803 7.47333 149.137 7.1C148.47 6.71333 147.723 6.52 146.897 6.52C146.07 6.52 145.323 6.71333 144.657 7.1C143.99 7.47333 143.463 8 143.077 8.68C142.703 9.36 142.517 10.1333 142.517 11C142.517 11.8667 142.703 12.64 143.077 13.32C143.463 14 143.99 14.5333 144.657 14.92C145.323 15.2933 146.07 15.48 146.897 15.48ZM157.053 4H160.273V13.12L166.953 4H169.993V18H166.793V8.9L160.113 18H157.053V4ZM163.513 3.1C160.953 3.1 159.659 2.08 159.633 0.0399988H161.853C161.879 1.01333 162.433 1.5 163.513 1.5C164.046 1.5 164.453 1.38 164.733 1.14C165.013 0.886666 165.159 0.519999 165.173 0.0399988H167.393C167.379 1.04 167.053 1.8 166.413 2.32C165.773 2.84 164.806 3.1 163.513 3.1Z" fill="#1B1642"/>
</svg>
